#!OML:ASF F:\VICON\USERDATA\INSTALL\rory3\rory3.ASF
:FULLY-SPECIFIED
:DEGREES
815
root 3.75724 17.9065 -6.59521 -188.231 53.1713 176.746
lowerback 11.1907 1.52275 -3.04638
upperback 1.21012 1.72432 0.0288925
thorax -5.09851 0.944742 1.47776
lowerneck -15.1789 -6.80664 -10.1814
upperneck 33.0127 -8.0492 7.31512
head 14.7238 -3.24611 3.52343
rclavicle 6.28501e-014 -1.46107e-014
rhumerus -37.6767 -12.404 -76.9792
rradius 33.6146
rwrist 3.156
rhand -18.0889 9.83047
rfingers 7.12502
rthumb 8.18455 -19.991
lclavicle 6.28501e-014 -1.46107e-014
lhumerus -37.5326 3.93785 83.2629
lradius 27.4578
lwrist -9.66668
lhand -19.391 23.8015
lfingers 7.12502
lthumb 6.92775 53.6682
rfemur -3.73818 -5.17851 18.1002
rtibia 58.9397
rfoot 0.548541 -11.3167
rtoes 11.7163
lfemur -6.5636 -0.226873 -22.5224
ltibia 14.385
lfoot -0.37139 -10.6967
ltoes 1.3427
816
root 3.82949 17.918 -6.67224 -188.697 53.1451 176.241
lowerback 11.2312 1.49122 -3.36894
upperback 1.24251 1.64152 -0.0218554
thorax -5.09028 0.910659 1.61873
lowerneck -15.1651 -6.80916 -10.3458
upperneck 33.028 -8.04437 7.43302
head 14.7439 -3.24941 3.6035
rclavicle -1.27533e-014 9.34288e-015
rhumerus -37.7781 -12.1449 -77.1891
rradius 33.4956
rwrist 3.25715
rhand -18.2257 9.54051
rfingers 7.12502
rthumb 8.0525 -20.2861
lclavicle -1.27533e-014 9.34288e-015
lhumerus -37.241 3.86782 83.2538
lradius 27.4833
lwrist -9.79592
lhand -19.8305 23.8234
lfingers 7.12502
lthumb 6.50343 53.7036
rfemur -4.65636 -5.62861 17.6521
rtibia 59.9653
rfoot -0.256021 -12.0087
rtoes 12.8744
lfemur -5.8757 -0.288949 -22.9512
ltibia 13.9596
lfoot -0.586302 -10.5577
ltoes 0.668691
817
root 3.90009 17.9251 -6.74629 -189.152 53.1149 175.766
lowerback 11.4184 1.44865 -3.74583
upperback 1.18078 1.52957 -0.000411509
thorax -5.26384 0.866645 1.86641
lowerneck -15.0332 -6.76065 -10.5598
upperneck 33.0302 -7.92717 7.47431
head 14.716 -3.22249 3.6821
rclavicle 1.55301e-016 5.96354e-016
rhumerus -37.9742 -11.6104 -77.319
rradius 33.3402
rwrist 3.05462
rhand -18.2343 9.63851
rfingers 7.12502
rthumb 8.04422 -20.1884
lclavicle 1.55301e-016 5.96354e-016
lhumerus -37.1433 3.95646 83.2678
lradius 27.5075
lwrist -10.1734
lhand -19.869 23.7371
lfingers 7.12502
lthumb 6.46632 53.6184
rfemur -5.54124 -6.09598 17.2368
rtibia 60.8253
rfoot -1.07468 -12.5253
rtoes 14.3481
lfemur -5.22334 -0.329273 -23.356
ltibia 13.5642
lfoot -0.731293 -10.4414
ltoes 0.593099
818
root 3.97158 17.9354 -6.82084 -189.245 53.1369 175.767
lowerback 11.5165 1.35709 -3.73192
upperback 1.19028 1.40782 0.0232427
thorax -5.30117 0.807465 1.90128
lowerneck -15.0582 -6.66285 -10.4226
upperneck 33.0383 -7.75928 7.2851
head 14.6859 -3.15987 3.60829
rclavicle 2.82026e-014 -1.37161e-014
rhumerus -38.0528 -11.6838 -77.315
rradius 33.0045
rwrist 3.61338
rhand -17.9944 10.0216
rfingers 7.12502
rthumb 8.27575 -19.7963
lclavicle 2.82026e-014 -1.37161e-014
lhumerus -36.9681 3.96713 83.1955
lradius 27.6186
lwrist -10.4085
lhand -19.7668 23.7017
lfingers 7.12502
lthumb 6.56491 53.58
rfemur -6.35146 -6.5079 17.1868
rtibia 61.5156
rfoot -1.84523 -12.8279
rtoes 14.7844
lfemur -4.58075 -0.365545 -23.4373
ltibia 13.2337
lfoot -0.83104 -10.2796
ltoes 1.50593
819
root 4.04234 17.942 -6.89301 -189.293 53.1781 175.77
lowerback 11.4339 1.27581 -3.58229
upperback 1.3017 1.32452 -0.0569162
thorax -5.12722 0.760234 1.74905
lowerneck -15.1818 -6.6038 -10.3059
upperneck 32.9782 -7.71207 7.29686
head 14.6735 -3.12628 3.59629
rclavicle 9.88954e-015 3.57812e-015
rhumerus -37.9669 -12.1988 -77.3753
rradius 32.664
rwrist 4.49681
rhand -17.8398 10.0924
rfingers 7.12502
rthumb 8.42496 -19.7196
lclavicle 9.88954e-015 3.57812e-015
lhumerus -36.5569 3.49724 83.1806
lradius 27.7314
lwrist -9.94089
lhand -20.2004 23.6566
lfingers 7.12502
lthumb 6.14631 53.5475
rfemur -7.23403 -6.86743 17.1784
rtibia 62.0713
rfoot -2.41036 -12.9968
rtoes 14.3796
lfemur -4.11071 -0.596919 -23.5297
ltibia 13.1758
lfoot -1.16304 -9.85614
ltoes 0.615351
820
root 4.11099 17.9456 -6.96132 -189.372 53.2513 175.631
lowerback 11.3503 1.2217 -3.60802
upperback 1.34141 1.2532 -0.0916964
thorax -5.03442 0.723929 1.7403
lowerneck -15.2329 -6.56486 -10.3144
upperneck 32.9387 -7.6623 7.32032
head 14.6622 -3.10558 3.61364
rclavicle 8.97451e-014 -6.95746e-015
rhumerus -37.9505 -12.4928 -77.4196
rradius 32.415
rwrist 4.99572
rhand -17.7709 10.1614
rfingers 7.12502
rthumb 8.49141 -19.6479
lclavicle 8.97451e-014 -6.95746e-015
lhumerus -36.2205 3.36769 83.1228
lradius 27.8347
lwrist -9.6722
lhand -20.4282 23.7165
lfingers 7.12502
lthumb 5.92637 53.6136
rfemur -8.2526 -7.1614 17.1055
rtibia 62.5026
rfoot -2.74142 -13.0133
rtoes 14.496
lfemur -3.81966 -0.792751 -23.708
ltibia 13.2763
lfoot -1.56711 -9.46185
ltoes -0.731354
